<svg width="73" height="76" viewBox="0 0 73 76" fill="none" xmlns="http://www.w3.org/2000/svg">
<path fill-rule="evenodd" clip-rule="evenodd" d="M68.611 17.3216C65.0756 17.4835 64.4895 17.3948 60.8065 16.1491C56.4608 14.6618 56.55 14.6489 56.8959 17.1203C57.0432 18.1458 57.1265 18.9802 57.0819 18.9866C57.0373 18.993 55.5407 19.2809 53.7382 19.5944C45.1395 21.1298 43.9803 21.36 39.9424 22.4588C32.5417 24.4774 27.1552 28.1635 24.0187 33.3832C23.8342 33.6827 23.2802 33.9443 22.3057 34.1935C18.2294 35.2158 13.3141 38.3793 9.02382 42.7271C4.70176 47.1067 1.54599 52.2563 0.828527 55.3719C0.27612 57.7357 1.41851 60.4295 4.02633 55.2038C7.58822 48.0664 14.2716 40.9266 20.5373 37.5329C22.8679 36.2698 22.8679 36.2698 22.793 38.2828C22.4993 45.7426 32.0838 50.8187 40.0887 47.43C49.0678 43.601 42.1737 33.1145 30.5798 32.996C29.4777 32.9904 28.5158 32.9466 28.4393 32.9211C28.2481 32.8576 29.6547 31.2448 30.8451 30.1546C35.3012 26.0742 39.9119 24.2743 51.6379 22.0804C58.0263 20.8715 57.4209 20.7764 57.9069 23.2094C58.7319 27.496 60.4333 28.189 63.3297 25.4158C65.0993 23.7327 66.8057 22.4319 70.2057 20.187C73.5548 17.9676 73.0764 17.1079 68.611 17.3216ZM38.5262 36.5509C40.993 38.5174 41.1617 42.5433 38.8701 44.8383C36.4704 47.2672 29.8771 47.1767 27.7093 44.6939C25.4332 42.0902 25.3645 35.7202 27.6065 35.1707C31.9629 34.1354 36.1423 34.6543 38.5262 36.5509Z" fill="#FFB400"/>
</svg>
