<svg width="56" height="56" viewBox="0 0 56 56" fill="none" xmlns="http://www.w3.org/2000/svg">
<rect opacity="0.25" width="56" height="56" rx="8" fill="white"/>
<path d="M23.105 24.7899C23.2785 25.4248 23.6558 25.985 24.1789 26.3843C24.702 26.7837 25.3419 27 26 26.9999H30C31.178 27 32.3182 27.416 33.2196 28.1745C34.1209 28.9329 34.7256 29.9853 34.927 31.1459C35.6057 31.3674 36.1832 31.8235 36.5559 32.4324C36.9286 33.0414 37.0719 33.7632 36.9603 34.4683C36.8486 35.1734 36.4892 35.8157 35.9467 36.2797C35.4041 36.7437 34.7139 36.999 34 36.9999C33.3015 37.0005 32.6248 36.7573 32.0864 36.3123C31.548 35.8673 31.1818 35.2484 31.0509 34.5623C30.9199 33.8763 31.0325 33.166 31.3691 32.554C31.7058 31.942 32.2454 31.4667 32.895 31.2099C32.7215 30.5751 32.3442 30.0149 31.8211 29.6156C31.298 29.2162 30.6581 28.9999 30 28.9999H26C24.9179 29.0015 23.8647 28.6505 23 27.9999V31.1699C23.6675 31.4059 24.2301 31.8701 24.5884 32.4808C24.9466 33.0914 25.0775 33.809 24.9578 34.5067C24.8381 35.2045 24.4756 35.8375 23.9344 36.2938C23.3931 36.7502 22.708 37.0004 22 37.0004C21.2921 37.0004 20.6069 36.7502 20.0656 36.2938C19.5244 35.8375 19.1619 35.2045 19.0422 34.5067C18.9225 33.809 19.0534 33.0914 19.4116 32.4808C19.7699 31.8701 20.3325 31.4059 21 31.1699V24.8299C20.337 24.5959 19.7772 24.1364 19.4184 23.5317C19.0595 22.927 18.9244 22.2156 19.0365 21.5214C19.1487 20.8273 19.501 20.1946 20.0321 19.7337C20.5631 19.2728 21.2391 19.013 21.9421 18.9997C22.6451 18.9863 23.3305 19.2202 23.8786 19.6606C24.4268 20.101 24.8029 20.7199 24.9414 21.4092C25.0798 22.0986 24.9718 22.8147 24.6362 23.4326C24.3006 24.0504 23.7587 24.5308 23.105 24.7899Z" fill="white"/>
</svg>
