<svg width="76" height="76" viewBox="0 0 76 76" fill="none" xmlns="http://www.w3.org/2000/svg">
<circle opacity="0.25" cx="38" cy="38" r="38" fill="white"/>
<path d="M42.6667 26.3335L48.5 32.1668V48.5095C48.4997 48.8165 48.3775 49.1109 48.1603 49.3279C47.943 49.5449 47.6486 49.6668 47.3415 49.6668H28.6585C28.3521 49.6647 28.0589 49.5421 27.8421 49.3256C27.6253 49.109 27.5024 48.8159 27.5 48.5095V27.4908C27.5 26.8515 28.0192 26.3335 28.6585 26.3335H42.6667ZM44.5998 38.0002L40.4733 33.8748L38.8248 35.5268L41.2993 38.0002L38.826 40.4747L40.4745 42.1255L44.5998 38.0002ZM31.4002 38.0002L35.5255 42.1255L37.1752 40.4747L34.7007 38.0002L37.174 35.5257L35.5267 33.8748L31.4002 38.0002Z" fill="white"/>
</svg>
