<svg width="76" height="76" viewBox="0 0 76 76" fill="none" xmlns="http://www.w3.org/2000/svg">
<circle opacity="0.25" cx="38" cy="38" r="38" fill="white"/>
<g clip-path="url(#clip0_321_407)">
<path d="M28.5113 41.5095L34.2893 47.2875C32.4382 48.0471 30.3624 48.0471 28.5113 47.2875C27.7517 45.4364 27.7517 43.3606 28.5113 41.5095ZM40.6357 45.0626L40.4147 48.5835L38.825 50.1732L25.6256 36.9739L27.2153 35.3842L30.7362 35.1631L35.5251 30.3742C38.3985 27.5009 42.9093 27.1214 46.6992 29.0997C48.6774 32.8895 48.2979 37.4004 45.4246 40.2737L40.6357 45.0626ZM38.825 36.9739C39.2625 37.4115 39.856 37.6573 40.4749 37.6573C41.0937 37.6573 41.6872 37.4115 42.1248 36.9739C42.5624 36.5363 42.8082 35.9428 42.8082 35.324C42.8082 34.7051 42.5624 34.1116 42.1248 33.6741C41.6872 33.2365 41.0937 32.9906 40.4749 32.9906C39.856 32.9906 39.2625 33.2365 38.825 33.6741C38.3874 34.1116 38.1415 34.7051 38.1415 35.324C38.1415 35.9428 38.3874 36.5363 38.825 36.9739Z" fill="white"/>
</g>
<defs>
<clipPath id="clip0_321_407">
<rect width="28" height="28" fill="white" transform="translate(38 18) rotate(45)"/>
</clipPath>
</defs>
</svg>
