<svg width="76" height="76" viewBox="0 0 76 76" fill="none" xmlns="http://www.w3.org/2000/svg">
<circle opacity="0.25" cx="38" cy="38" r="38" fill="white"/>
<path d="M37.5613 32.4257C36.5393 32.4257 34.9573 31.2637 33.2913 31.3057C31.0933 31.3337 29.0773 32.5797 27.9433 34.5537C25.6613 38.5157 27.3553 44.3677 29.5813 47.5877C30.6733 49.1557 31.9613 50.9197 33.6693 50.8637C35.3073 50.7937 35.9233 49.7997 37.9113 49.7997C39.8853 49.7997 40.4453 50.8637 42.1813 50.8217C43.9453 50.7937 45.0653 49.2257 46.1433 47.6437C47.3893 45.8237 47.9073 44.0597 47.9353 43.9617C47.8933 43.9477 44.5053 42.6457 44.4633 38.7257C44.4353 35.4497 47.1373 33.8817 47.2633 33.8117C45.7233 31.5577 43.3573 31.3057 42.5313 31.2497C40.3753 31.0817 38.5693 32.4257 37.5613 32.4257ZM41.2013 29.1217C42.1113 28.0297 42.7133 26.5037 42.5453 24.9917C41.2433 25.0477 39.6753 25.8597 38.7373 26.9517C37.8973 27.9177 37.1693 29.4717 37.3653 30.9557C38.8073 31.0677 40.2913 30.2137 41.2013 29.1217Z" fill="white"/>
</svg>
