<svg width="56" height="56" viewBox="0 0 56 56" fill="none" xmlns="http://www.w3.org/2000/svg">
<rect opacity="0.25" width="56" height="56" rx="8" fill="white"/>
<path d="M37 25.5V28.5C37 30.985 32.97 33 28 33C23.03 33 19 30.985 19 28.5V25.5C19 27.985 23.03 30 28 30C32.97 30 37 27.985 37 25.5ZM19 30.5C19 32.985 23.03 35 28 35C32.97 35 37 32.985 37 30.5V33.5C37 35.985 32.97 38 28 38C23.03 38 19 35.985 19 33.5V30.5ZM28 28C23.03 28 19 25.985 19 23.5C19 21.015 23.03 19 28 19C32.97 19 37 21.015 37 23.5C37 25.985 32.97 28 28 28Z" fill="white"/>
</svg>
