<svg width="56" height="56" viewBox="0 0 56 56" fill="none" xmlns="http://www.w3.org/2000/svg">
<rect opacity="0.25" width="56" height="56" rx="8" fill="white"/>
<path d="M38 33.002C37.9996 34.3696 37.5321 35.696 36.675 36.7616C35.8179 37.8273 34.6226 38.5683 33.287 38.862L32.649 36.948C33.2332 36.8518 33.7888 36.6271 34.2758 36.2903C34.7627 35.9534 35.1689 35.5128 35.465 35H33C32.4696 35 31.9609 34.7893 31.5858 34.4142C31.2107 34.0391 31 33.5304 31 33V29C31 28.4696 31.2107 27.9609 31.5858 27.5858C31.9609 27.2107 32.4696 27 33 27H35.938C35.694 25.0669 34.7529 23.2893 33.2914 22.0007C31.8299 20.7121 29.9484 20.0011 28 20.0011C26.0516 20.0011 24.1701 20.7121 22.7086 22.0007C21.2471 23.2893 20.306 25.0669 20.062 27H23C23.5304 27 24.0391 27.2107 24.4142 27.5858C24.7893 27.9609 25 28.4696 25 29V33C25 33.5304 24.7893 34.0391 24.4142 34.4142C24.0391 34.7893 23.5304 35 23 35H20C19.4696 35 18.9609 34.7893 18.5858 34.4142C18.2107 34.0391 18 33.5304 18 33V28C18 22.477 22.477 18 28 18C33.523 18 38 22.477 38 28V33.002Z" fill="white"/>
</svg>
