<svg width="76" height="76" viewBox="0 0 76 76" fill="none" xmlns="http://www.w3.org/2000/svg">
<circle opacity="0.25" cx="38" cy="38" r="38" fill="white"/>
<path d="M44.4167 48.5C43.3337 48.5 42.2951 48.0698 41.5293 47.304C40.7635 46.5382 40.3333 45.4996 40.3333 44.4167C40.3333 43.3337 40.7635 42.2951 41.5293 41.5293C42.2951 40.7635 43.3337 40.3333 44.4167 40.3333C45.4996 40.3333 46.5382 40.7635 47.304 41.5293C48.0698 42.2951 48.5 43.3337 48.5 44.4167C48.5 45.4996 48.0698 46.5382 47.304 47.304C46.5382 48.0698 45.4996 48.5 44.4167 48.5ZM31.5833 35.6667C31.0471 35.6667 30.5161 35.561 30.0207 35.3558C29.5253 35.1506 29.0752 34.8499 28.696 34.4707C28.3168 34.0915 28.016 33.6414 27.8108 33.146C27.6056 32.6505 27.5 32.1196 27.5 31.5833C27.5 31.0471 27.6056 30.5161 27.8108 30.0207C28.016 29.5253 28.3168 29.0752 28.696 28.696C29.0752 28.3168 29.5253 28.016 30.0207 27.8108C30.5161 27.6056 31.0471 27.5 31.5833 27.5C32.6663 27.5 33.7049 27.9302 34.4707 28.696C35.2365 29.4618 35.6667 30.5004 35.6667 31.5833C35.6667 32.6663 35.2365 33.7049 34.4707 34.4707C33.7049 35.2365 32.6663 35.6667 31.5833 35.6667ZM46.2495 28.1008L47.8992 29.7505L29.7517 47.8992L28.102 46.2495L46.2483 28.1008H46.2495Z" fill="white"/>
</svg>
