<svg width="56" height="56" viewBox="0 0 56 56" fill="none" xmlns="http://www.w3.org/2000/svg">
<rect opacity="0.25" width="56" height="56" rx="8" fill="white"/>
<path d="M19.897 33.86L23.807 29.95L26.636 32.778L31.207 28.208L33 30V25H28L29.793 26.793L26.636 29.95L23.808 27.121L18.862 32.067C18.2919 30.787 17.9982 29.4012 18 28C18 22.477 22.477 18 28 18C33.523 18 38 22.477 38 28C38 33.523 33.523 38 28 38C26.418 38.001 24.8584 37.6262 23.4496 36.9065C22.0408 36.1867 20.8232 35.1425 19.897 33.86Z" fill="white"/>
</svg>
