<svg width="163" height="24" viewBox="0 0 163 24" fill="none" xmlns="http://www.w3.org/2000/svg">
<path d="M43.3752 16.2131C44.4059 16.2131 45.2119 16.0601 45.793 15.7541C46.3742 15.4481 46.6648 15.0437 46.6648 14.541C46.6648 14.1475 46.4345 13.8197 45.974 13.5574C45.5134 13.2842 44.7239 13.0273 43.6055 12.7869C42.0922 12.4699 40.9792 12.0437 40.2665 11.5082C39.5538 10.9617 39.1974 10.2678 39.1974 9.42623C39.1974 8.93443 39.318 8.48634 39.5592 8.08197C39.8005 7.6776 40.1404 7.33333 40.579 7.04918C41.0286 6.76503 41.5714 6.54645 42.2074 6.39344C42.8543 6.24044 43.578 6.16393 44.3785 6.16393C45.0693 6.16393 45.6395 6.21311 46.0891 6.31148C46.5387 6.39891 46.906 6.50273 47.1911 6.62295C47.5091 6.7541 47.7613 6.9071 47.9477 7.08197V8.85246C47.6846 8.66667 47.3721 8.50273 47.0102 8.36066C46.6703 8.22951 46.281 8.12022 45.8424 8.03279C45.4038 7.93443 44.8884 7.88525 44.2963 7.88525C43.3971 7.88525 42.6679 8.02186 42.1087 8.29508C41.5604 8.55738 41.2863 8.91803 41.2863 9.37705C41.2863 9.75956 41.5056 10.0656 41.9442 10.2951C42.3828 10.5246 43.0956 10.7432 44.0824 10.9508C45.7382 11.2896 46.928 11.7541 47.6517 12.3443C48.3754 12.9344 48.7372 13.6503 48.7372 14.4918C48.7372 15.0164 48.6111 15.4973 48.3589 15.9344C48.1067 16.3607 47.7394 16.7268 47.2569 17.0328C46.7854 17.3279 46.2097 17.5574 45.5299 17.7213C44.861 17.8852 44.1044 17.9672 43.26 17.9672C42.4705 17.9672 41.8017 17.9071 41.2534 17.7869C40.7161 17.6557 40.2775 17.5191 39.9375 17.377C39.6086 17.224 39.3673 17.0874 39.2138 16.9672C39.0713 16.847 39 16.7869 39 16.7869V14.8689C39.0548 14.9016 39.1919 14.9945 39.4112 15.1475C39.6305 15.2896 39.9266 15.4426 40.2994 15.6066C40.6832 15.7596 41.1328 15.9016 41.6481 16.0328C42.1635 16.153 42.7392 16.2131 43.3752 16.2131Z" fill="white"/>
<path d="M57.1635 12.3934C57.01 11.5301 56.6975 10.929 56.226 10.5902C55.7654 10.2404 55.1952 10.0656 54.5154 10.0656C53.7588 10.0656 53.1173 10.2732 52.591 10.6885C52.0646 11.1038 51.7247 11.6721 51.5712 12.3934H57.1635ZM51.5218 13.7377C51.6425 14.5355 51.9934 15.1803 52.5745 15.6721C53.1666 16.153 53.9123 16.3934 54.8115 16.3934C55.4255 16.3934 55.9573 16.3388 56.4069 16.2295C56.8565 16.1202 57.2293 16 57.5254 15.8689C57.8763 15.7268 58.1723 15.5574 58.4136 15.3607V17.1148C58.1504 17.2787 57.8324 17.4262 57.4596 17.5574C57.1197 17.6776 56.7194 17.7814 56.2589 17.8689C55.7983 17.9563 55.2556 18 54.6305 18C53.8739 18 53.1831 17.8852 52.5581 17.6557C51.944 17.4262 51.4177 17.1038 50.9791 16.6885C50.5404 16.2732 50.2005 15.776 49.9593 15.1967C49.718 14.6066 49.5974 13.9508 49.5974 13.2295C49.5974 12.5082 49.7126 11.8579 49.9428 11.2787C50.1841 10.6885 50.5185 10.1858 50.9462 9.77049C51.3848 9.35519 51.9056 9.03279 52.5087 8.80328C53.1228 8.57377 53.8026 8.45902 54.5483 8.45902C55.2391 8.45902 55.8696 8.55738 56.4398 8.7541C57.01 8.95082 57.498 9.26229 57.9037 9.68852C58.3094 10.1038 58.6219 10.6448 58.8412 11.3115C59.0605 11.9781 59.1702 12.7869 59.1702 13.7377H51.5218Z" fill="white"/>
<path d="M65.9946 16.5902C65.7095 17.0055 65.2983 17.3388 64.761 17.5902C64.2237 17.8415 63.5658 17.9672 62.7872 17.9672C62.3596 17.9672 61.9593 17.9016 61.5865 17.7705C61.2137 17.6284 60.8847 17.4426 60.5996 17.2131C60.3255 16.9727 60.1062 16.6885 59.9417 16.3607C59.7882 16.0328 59.7114 15.6776 59.7114 15.2951C59.7114 14.4645 60.0349 13.8087 60.6819 13.3279C61.3398 12.847 62.3705 12.4973 63.7741 12.2787C64.6075 12.1475 65.1831 12.0109 65.5011 11.8689C65.8301 11.7158 65.9946 11.5082 65.9946 11.2459C65.9946 10.8525 65.7972 10.5628 65.4025 10.377C65.0187 10.1803 64.5307 10.082 63.9386 10.082C63.3574 10.082 62.8366 10.1585 62.376 10.3115C61.9264 10.4645 61.5426 10.6393 61.2246 10.8361C60.9176 11.0219 60.6819 11.1913 60.5174 11.3443C60.3529 11.4973 60.2652 11.5738 60.2542 11.5738V9.80328C60.5064 9.55191 60.8134 9.32787 61.1753 9.13115C61.5152 8.94536 61.9155 8.78689 62.376 8.65574C62.8475 8.52459 63.4122 8.45902 64.0702 8.45902C65.3421 8.45902 66.2961 8.72131 66.9321 9.2459C67.5681 9.75956 67.8861 10.5628 67.8861 11.6557V17.8033H65.9946V16.5902ZM65.9946 13.0328C65.545 13.3169 64.8542 13.5519 63.9221 13.7377C63.0888 13.8907 62.4911 14.082 62.1293 14.3115C61.7784 14.541 61.603 14.8361 61.603 15.1967C61.603 15.5683 61.7674 15.8743 62.0964 16.1148C62.4254 16.3552 62.864 16.4754 63.4122 16.4754C64.2785 16.4754 64.9255 16.2514 65.3531 15.8033C65.7808 15.3552 65.9946 14.7705 65.9946 14.0492V13.0328Z" fill="white"/>
<path d="M69.5066 8.62295H71.3981V10C71.7052 9.49727 72.089 9.11475 72.5495 8.85246C73.021 8.59016 73.5638 8.45902 74.1779 8.45902C74.3643 8.45902 74.5233 8.46995 74.6549 8.4918C74.7864 8.50273 74.8906 8.51913 74.9674 8.54098C75.0661 8.56284 75.1428 8.59016 75.1976 8.62295V10.2459C75.099 10.224 74.9948 10.2022 74.8851 10.1803C74.7755 10.1694 74.6603 10.1585 74.5397 10.1475C74.4301 10.1257 74.3095 10.1148 74.1779 10.1148C73.7941 10.1148 73.4322 10.1803 73.0923 10.3115C72.7633 10.4317 72.4728 10.612 72.2206 10.8525C71.9683 11.0929 71.7655 11.388 71.612 11.7377C71.4694 12.0874 71.3981 12.4863 71.3981 12.9344V17.8033H69.5066V8.62295Z" fill="white"/>
<path d="M83.9927 15.4098V17.2459C83.5322 17.4973 83.0552 17.6831 82.5617 17.8033C82.0793 17.9344 81.5584 18 80.9992 18C80.1768 18 79.4311 17.8852 78.7622 17.6557C78.0934 17.4262 77.5177 17.1038 77.0352 16.6885C76.5637 16.2732 76.1964 15.776 75.9332 15.1967C75.67 14.6066 75.5384 13.9508 75.5384 13.2295C75.5384 12.5082 75.67 11.8579 75.9332 11.2787C76.1964 10.6885 76.5637 10.1858 77.0352 9.77049C77.5177 9.35519 78.0934 9.03279 78.7622 8.80328C79.4311 8.57377 80.1768 8.45902 80.9992 8.45902C81.5584 8.45902 82.0793 8.52459 82.5617 8.65574C83.0552 8.77596 83.5322 8.96175 83.9927 9.21311V11.0492C83.598 10.7213 83.1703 10.4809 82.7098 10.3279C82.2492 10.1749 81.7503 10.0984 81.213 10.0984C80.6428 10.0984 80.122 10.1749 79.6504 10.3279C79.1899 10.4809 78.7951 10.694 78.4662 10.9672C78.1372 11.2404 77.8795 11.5683 77.6931 11.9508C77.5177 12.3333 77.43 12.7596 77.43 13.2295C77.43 13.6995 77.5177 14.1257 77.6931 14.5082C77.8795 14.8907 78.1372 15.2186 78.4662 15.4918C78.8061 15.765 79.2063 15.9781 79.6669 16.1311C80.1384 16.2842 80.6538 16.3607 81.213 16.3607C81.7613 16.3607 82.2602 16.2842 82.7098 16.1311C83.1703 15.9672 83.598 15.7268 83.9927 15.4098Z" fill="white"/>
<path d="M85.5692 6H87.4278V10.1148C87.7787 9.57924 88.2392 9.1694 88.8094 8.88525C89.3796 8.60109 90.054 8.45902 90.8325 8.45902C91.4466 8.45902 91.9949 8.55738 92.4773 8.7541C92.9598 8.95082 93.3655 9.23497 93.6945 9.60656C94.0344 9.97814 94.2921 10.4317 94.4676 10.9672C94.654 11.5027 94.7472 12.1038 94.7472 12.7705V17.8033H92.8885V12.7869C92.8885 11.8907 92.6692 11.2131 92.2306 10.7541C91.803 10.2842 91.167 10.0492 90.3227 10.0492C89.4345 10.0492 88.7327 10.306 88.2173 10.8197C87.7019 11.3224 87.4388 12.0219 87.4278 12.918V17.8033H85.5692V6Z" fill="white"/>
<path d="M105.178 15.1967H99.2401L98.138 17.8033H96.0162L100.951 6.32787H103.533L108.467 17.8033H106.263L105.178 15.1967ZM99.9144 13.5574H104.503L102.217 8.08197L99.9144 13.5574Z" fill="white"/>
<path d="M113.004 8.45902C113.794 8.45902 114.496 8.61749 115.11 8.93443C115.724 9.25137 116.223 9.69399 116.606 10.2623V6H118.498V17.8033H116.606V16.1967C116.223 16.765 115.724 17.2077 115.11 17.5246C114.496 17.8415 113.794 18 113.004 18C112.346 18 111.743 17.8852 111.195 17.6557C110.658 17.4262 110.192 17.1038 109.797 16.6885C109.413 16.2732 109.117 15.776 108.909 15.1967C108.7 14.6066 108.596 13.9508 108.596 13.2295C108.596 12.5082 108.7 11.8579 108.909 11.2787C109.117 10.6885 109.413 10.1858 109.797 9.77049C110.192 9.35519 110.658 9.03279 111.195 8.80328C111.743 8.57377 112.346 8.45902 113.004 8.45902ZM116.689 13.2131C116.689 12.7432 116.612 12.3169 116.458 11.9344C116.305 11.541 116.091 11.2077 115.817 10.9344C115.543 10.6612 115.214 10.4481 114.83 10.2951C114.446 10.1421 114.024 10.0656 113.564 10.0656C113.103 10.0656 112.681 10.1421 112.297 10.2951C111.924 10.4481 111.601 10.6667 111.327 10.9508C111.064 11.224 110.855 11.5574 110.702 11.9508C110.559 12.3333 110.488 12.7596 110.488 13.2295C110.488 13.6995 110.559 14.1311 110.702 14.5246C110.855 14.9071 111.069 15.2404 111.343 15.5246C111.617 15.7978 111.941 16.0109 112.314 16.1639C112.697 16.3169 113.12 16.3934 113.58 16.3934C114.041 16.3934 114.463 16.3169 114.847 16.1639C115.23 16.0109 115.559 15.7978 115.833 15.5246C116.108 15.2404 116.316 14.9016 116.458 14.5082C116.612 14.1148 116.689 13.6831 116.689 13.2131Z" fill="white"/>
<path d="M123.458 16.377C124.116 16.377 124.637 16.2842 125.021 16.0984C125.416 15.9016 125.613 15.612 125.613 15.2295C125.613 14.9126 125.454 14.6612 125.136 14.4754C124.818 14.2896 124.242 14.1148 123.409 13.9508C122.148 13.6995 121.238 13.3607 120.679 12.9344C120.13 12.5082 119.856 11.9399 119.856 11.2295C119.856 10.3661 120.223 9.68852 120.958 9.19672C121.704 8.70492 122.724 8.45902 124.017 8.45902C124.511 8.45902 124.933 8.4918 125.284 8.55738C125.646 8.61202 125.947 8.6776 126.189 8.7541C126.463 8.84153 126.693 8.93989 126.879 9.04918V10.7049C126.704 10.5956 126.485 10.4973 126.222 10.4098C125.991 10.3333 125.717 10.2678 125.399 10.2131C125.081 10.1475 124.703 10.1148 124.264 10.1148C123.508 10.1148 122.91 10.2131 122.471 10.4098C122.044 10.5956 121.83 10.847 121.83 11.1639C121.83 11.4153 121.989 11.6284 122.307 11.8033C122.636 11.9672 123.179 12.1257 123.935 12.2787C124.593 12.4098 125.147 12.5683 125.597 12.7541C126.046 12.929 126.413 13.1311 126.699 13.3607C126.984 13.5902 127.186 13.8525 127.307 14.1475C127.439 14.4426 127.504 14.7814 127.504 15.1639C127.504 16.071 127.159 16.765 126.468 17.2459C125.777 17.7268 124.769 17.9672 123.442 17.9672C122.817 17.9672 122.285 17.918 121.846 17.8197C121.408 17.7322 121.051 17.6393 120.777 17.541C120.503 17.4317 120.3 17.3333 120.169 17.2459C120.048 17.1585 119.988 17.1148 119.988 17.1148V15.4262C120.295 15.6011 120.629 15.7596 120.991 15.9016C121.32 16.0328 121.687 16.1475 122.093 16.2459C122.51 16.3333 122.965 16.377 123.458 16.377Z" fill="white"/>
<path d="M136.537 17.8033H135.073L131.24 8.68852V17.8033H129.184V6.32787H132.392L135.862 14.5738L139.333 6.32787H142.409V17.8033H140.353V8.72131L136.537 17.8033Z" fill="white"/>
<path d="M150.178 16.5902C149.893 17.0055 149.482 17.3388 148.945 17.5902C148.407 17.8415 147.75 17.9672 146.971 17.9672C146.543 17.9672 146.143 17.9016 145.77 17.7705C145.397 17.6284 145.069 17.4426 144.783 17.2131C144.509 16.9727 144.29 16.6885 144.125 16.3607C143.972 16.0328 143.895 15.6776 143.895 15.2951C143.895 14.4645 144.219 13.8087 144.866 13.3279C145.524 12.847 146.554 12.4973 147.958 12.2787C148.791 12.1475 149.367 12.0109 149.685 11.8689C150.014 11.7158 150.178 11.5082 150.178 11.2459C150.178 10.8525 149.981 10.5628 149.586 10.377C149.202 10.1803 148.714 10.082 148.122 10.082C147.541 10.082 147.02 10.1585 146.56 10.3115C146.11 10.4645 145.726 10.6393 145.408 10.8361C145.101 11.0219 144.866 11.1913 144.701 11.3443C144.537 11.4973 144.449 11.5738 144.438 11.5738V9.80328C144.69 9.55191 144.997 9.32787 145.359 9.13115C145.699 8.94536 146.099 8.78689 146.56 8.65574C147.031 8.52459 147.596 8.45902 148.254 8.45902C149.526 8.45902 150.48 8.72131 151.116 9.2459C151.752 9.75956 152.07 10.5628 152.07 11.6557V17.8033H150.178V16.5902ZM150.178 13.0328C149.729 13.3169 149.038 13.5519 148.106 13.7377C147.273 13.8907 146.675 14.082 146.313 14.3115C145.962 14.541 145.787 14.8361 145.787 15.1967C145.787 15.5683 145.951 15.8743 146.28 16.1148C146.609 16.3552 147.048 16.4754 147.596 16.4754C148.462 16.4754 149.109 16.2514 149.537 15.8033C149.965 15.3552 150.178 14.7705 150.178 14.0492V13.0328Z" fill="white"/>
<path d="M162.852 8.62295L159.151 13.0164L163 17.8033H160.714L158.082 14.3607L155.516 17.8033H153.197L157.013 13.0164L153.345 8.62295H155.664L158.082 11.6885L160.582 8.62295H162.852Z" fill="white"/>
<circle cx="12" cy="12" r="12" fill="#7C3AED"/>
<circle cx="15" cy="12" r="12" fill="white"/>
<circle cx="15" cy="12" r="5" stroke="#6456FF" stroke-width="2"/>
<mask id="mask0_321_294" style="mask-type:alpha" maskUnits="userSpaceOnUse" x="3" y="0" width="24" height="24">
<circle cx="15" cy="12" r="12" fill="#1E293B"/>
</mask>
<g mask="url(#mask0_321_294)">
<path d="M18 16L23 22" stroke="#6456FF" stroke-width="2"/>
</g>
</svg>
